<svg width="25" height="25" viewBox="0 0 25 25" fill="none" xmlns="http://www.w3.org/2000/svg">
<path d="M16.3501 12.4C16.3501 13.1417 16.1302 13.8667 15.7181 14.4834C15.3061 15.1001 14.7204 15.5807 14.0352 15.8645C13.35 16.1484 12.5959 16.2226 11.8685 16.0779C11.1411 15.9333 10.4729 15.5761 9.94847 15.0516C9.42402 14.5272 9.06684 13.859 8.92214 13.1316C8.77745 12.4041 8.85171 11.6501 9.13556 10.9649C9.41936 10.2797 9.90001 9.69404 10.5167 9.28198C11.1334 8.86992 11.8584 8.64999 12.6001 8.64999C13.5947 8.64999 14.5485 9.04507 15.2517 9.74836C15.955 10.4516 16.3501 11.4054 16.3501 12.4ZM23.8501 6.39999V18.4C23.8501 18.5989 23.7711 18.7897 23.6304 18.9303C23.4898 19.071 23.299 19.15 23.1001 19.15H2.1001C1.90118 19.15 1.71042 19.071 1.56977 18.9303C1.42911 18.7897 1.3501 18.5989 1.3501 18.4V6.39999C1.3501 6.20107 1.42911 6.01032 1.56977 5.86969C1.71042 5.72901 1.90118 5.64999 2.1001 5.64999H23.1001C23.299 5.64999 23.4898 5.72901 23.6304 5.86969C23.7711 6.01032 23.8501 6.20107 23.8501 6.39999ZM22.3501 10.7453C21.4985 10.4935 20.7234 10.0326 20.0954 9.40466C19.4675 8.77669 19.0066 8.00162 18.7548 7.14999H6.44539C6.19362 8.00162 5.73273 8.77669 5.10477 9.40466C4.47681 10.0326 3.70172 10.4935 2.8501 10.7453V14.0547C3.70172 14.3065 4.47681 14.7674 5.10477 15.3953C5.73273 16.0233 6.19362 16.7984 6.44539 17.65H18.7548C19.0066 16.7984 19.4675 16.0233 20.0954 15.3953C20.7234 14.7674 21.4985 14.3065 22.3501 14.0547V10.7453Z" fill="#20294C"/>
</svg>
