<svg width="25" height="25" viewBox="0 0 25 25" fill="none" xmlns="http://www.w3.org/2000/svg">
<g clip-path="url(#clip0_4_825)">
<path d="M23.6104 13.15L14.3 3.83969C14.1613 3.69979 13.9961 3.58888 13.814 3.5134C13.632 3.43792 13.4368 3.39937 13.2398 3.4H4.55006C4.35114 3.4 4.16037 3.47902 4.01973 3.61967C3.87907 3.76032 3.80006 3.95109 3.80006 4.15V12.8397C3.79942 13.0367 3.83797 13.232 3.91345 13.414C3.98894 13.596 4.09985 13.7612 4.23974 13.9L13.55 23.2103C13.6893 23.3496 13.8547 23.4602 14.0367 23.5356C14.2187 23.6109 14.4138 23.6498 14.6108 23.6498C14.8078 23.6498 15.0029 23.6109 15.185 23.5356C15.3669 23.4602 15.5323 23.3496 15.6716 23.2103L23.6104 15.2715C23.7497 15.1323 23.8602 14.9669 23.9356 14.7849C24.011 14.6029 24.0498 14.4078 24.0498 14.2108C24.0498 14.0138 24.011 13.8187 23.9356 13.6367C23.8602 13.4547 23.7497 13.2893 23.6104 13.15ZM8.67505 9.39999C8.45254 9.39999 8.23506 9.33404 8.05003 9.21039C7.86505 9.08679 7.72082 8.91108 7.63571 8.70552C7.55055 8.49995 7.52826 8.27375 7.57169 8.05553C7.61508 7.83732 7.72225 7.63682 7.87954 7.47948C8.03688 7.32219 8.23737 7.21502 8.45559 7.17164C8.6738 7.12821 8.9 7.1505 9.10557 7.23565C9.31114 7.32076 9.48685 7.46499 9.61045 7.64998C9.73409 7.83501 9.80005 8.05248 9.80005 8.27499C9.80005 8.57338 9.68152 8.85953 9.47055 9.0705C9.25959 9.28147 8.97343 9.39999 8.67505 9.39999Z" fill="#20294C"/>
</g>
<defs>
<clipPath id="clip0_4_825">
<rect width="24" height="24" fill="white" transform="translate(0.800049 0.399994)"/>
</clipPath>
</defs>
</svg>
