<svg width="552" height="565" viewBox="0 0 552 565" fill="none" xmlns="http://www.w3.org/2000/svg">
<path d="M0 556.741H552" stroke="#263238" stroke-linecap="round" stroke-linejoin="round"/>
<path d="M424.811 337.304V337.47C424.811 337.742 424.862 338.03 424.965 338.332C425.539 341.647 425.967 344.994 426.248 348.361C426.492 351.25 426.685 354.548 426.736 358.223C426.858 366.718 426.364 375.21 425.26 383.605C424.978 385.814 424.644 388.143 424.246 390.473C423.617 394.315 422.847 398.338 421.897 402.498C421.474 404.434 420.986 406.416 420.472 408.412L419.869 410.848C419.638 411.831 419.407 412.814 419.189 413.873C417.713 420.593 416.535 427.399 415.659 434.263C414.568 442.81 413.888 451.295 413.515 459.327C413.015 470.037 413.04 479.929 413.259 488.067C413.252 488.203 413.252 488.34 413.259 488.476C413.49 496.75 413.926 503.239 414.221 506.93C414.388 509.093 414.504 510.318 414.517 510.394" stroke="#263238" stroke-linecap="round" stroke-linejoin="round"/>
<path d="M424.85 337.516C422.928 335.503 420.612 334.084 418.111 333.386L424.85 337.516Z" fill="white"/>
<path d="M424.85 337.516C422.928 335.503 420.612 334.084 418.111 333.386" stroke="#263238" stroke-linecap="round" stroke-linejoin="round"/>
<path d="M426.287 348.406L429.701 344.761" stroke="#263238" stroke-linecap="round" stroke-linejoin="round"/>
<path d="M421.935 402.513C421.756 401.451 421.49 400.413 421.14 399.412C420.634 397.945 419.946 396.573 419.099 395.343C418.466 394.419 417.747 393.582 416.955 392.847" stroke="#263238" stroke-linecap="round" stroke-linejoin="round"/>
<path d="M419.202 413.858C419.685 412.445 420.41 411.164 421.331 410.095C422.251 409.026 423.349 408.19 424.554 407.641" stroke="#263238" stroke-linecap="round" stroke-linejoin="round"/>
<path d="M413.272 470.128C414.414 468.494 415.274 462.307 415.736 458.98C415.852 458.193 415.942 457.467 416.032 457.028" fill="white"/>
<path d="M413.272 470.128C414.414 468.494 415.274 462.307 415.736 458.98C415.852 458.193 415.942 457.467 416.032 457.028" stroke="#263238" stroke-linecap="round" stroke-linejoin="round"/>
<path d="M404.479 481.351C404.859 481.306 405.242 481.306 405.621 481.351C407.303 481.544 408.908 482.272 410.264 483.458C411.621 484.644 412.678 486.242 413.323 488.082" fill="white"/>
<path d="M404.479 481.351C404.859 481.306 405.242 481.306 405.621 481.351C407.303 481.544 408.908 482.272 410.264 483.458C411.621 484.644 412.678 486.242 413.323 488.082" stroke="#263238" stroke-linecap="round" stroke-linejoin="round"/>
<path d="M424.285 390.594C424.285 390.594 424.888 366.044 413.451 357.134" stroke="#263238" stroke-linecap="round" stroke-linejoin="round"/>
<path d="M425.26 443.218C426.762 448.951 416.275 459.857 416.275 459.857C416.275 459.857 402.426 457.815 400.872 452.097C399.319 446.379 402.875 436.971 409.601 434.551C416.327 432.13 423.81 437.485 425.26 443.218Z" fill="#112E45"/>
<path d="M436.928 373.743C435.644 379.793 425.684 384.135 425.684 384.135C425.684 384.135 418.842 374.711 420.126 368.63C421.409 362.55 426.941 355.864 431.588 357.27C436.235 358.677 438.263 367.662 436.928 373.743Z" fill="#112E45"/>
<path d="M397.15 464.606C403.375 467.45 407.187 480.429 407.187 480.429C407.187 480.429 396.919 486.948 390.706 484.089C384.494 481.23 377.871 473.183 379.668 467.813C381.465 462.443 390.924 461.687 397.15 464.606Z" fill="#112E45"/>
<path d="M410.794 393.21C412.054 394.459 413.499 395.423 415.056 396.054C415.837 396.352 416.673 396.391 417.472 396.167C418.272 395.943 419.003 395.465 419.587 394.784C420.87 392.984 420.562 390.246 419.728 387.992C418.059 383.681 411.924 376.345 407.213 378.447C400.41 381.518 407.765 390.594 410.794 393.21Z" fill="#112E45"/>
<path d="M424.721 404.207C423.822 405.508 422.872 407.157 423.373 408.745C423.652 409.412 424.111 409.952 424.677 410.28C425.243 410.609 425.886 410.707 426.505 410.56C427.736 410.216 428.885 409.549 429.868 408.609C432.268 406.643 437.197 402.559 434.052 398.671C430.908 394.784 426.543 401.469 424.721 404.207Z" fill="#112E45"/>
<path d="M404.633 349.344C404.115 349.38 403.62 349.606 403.217 349.992C402.814 350.377 402.523 350.902 402.387 351.492C402.182 352.899 403.17 354.124 404.12 354.986C406.507 357.165 413.683 363.003 415.274 357.361C416.789 352.037 407.791 348.936 404.633 349.344Z" fill="#112E45"/>
<path d="M417.841 330.799C416.365 330.966 414.889 330.331 413.4 330.436C411.911 330.542 410.281 331.949 410.602 333.673C410.923 335.398 412.579 335.776 413.939 335.867C416.282 336.044 418.634 335.856 420.935 335.307C421.479 335.246 421.984 334.943 422.347 334.46C422.95 333.416 422 332.025 420.973 331.662C419.919 331.496 418.882 331.202 417.88 330.784L417.841 330.799Z" fill="#112E45"/>
<path d="M432.294 342.795C433.771 342.795 435.208 342.099 436.697 342.084C438.186 342.069 439.906 343.354 439.662 345.109C439.418 346.864 437.827 347.363 436.466 347.559C434.14 347.922 431.784 347.922 429.458 347.559C428.907 347.544 428.383 347.279 427.994 346.818C427.34 345.835 428.213 344.368 429.201 343.914C430.247 343.684 431.268 343.313 432.243 342.81L432.294 342.795Z" fill="#112E45"/>
<path d="M430.831 471.701C431.171 471.283 431.626 471.02 432.114 470.96C432.444 470.996 432.753 471.168 432.987 471.444C433.221 471.72 433.367 472.083 433.398 472.472C433.469 473.219 433.39 473.976 433.167 474.681C432.153 478.659 420.858 507.384 418.252 502.225C416.724 499.2 420.498 489.081 421.615 486.222C423.746 480.643 426.892 475.686 430.831 471.701Z" fill="#112E45"/>
<path d="M425.324 339.164C425.324 339.164 424.644 332.191 426.069 331.601" stroke="#263238" stroke-linecap="round" stroke-linejoin="round"/>
<path d="M424.066 331.889C424.794 329.426 426.05 327.227 427.712 325.505C429.496 323.993 432.358 323.872 433.655 325.974C435.105 328.319 433.655 331.873 431.434 333.129C429.214 334.384 426.595 334.006 424.156 333.598C424.156 333.174 424.156 332.751 424.156 332.327L424.066 331.889Z" fill="#112E45"/>
<path d="M430.151 556.393C418.051 558.798 405.694 558.798 393.595 556.393L379.373 506.945H444.373L430.151 556.393Z" fill="white" stroke="#263238" stroke-linecap="round" stroke-linejoin="round"/>
<path d="M182.088 199.14V199.307C182.139 199.579 182.191 199.866 182.242 200.169C182.823 203.482 183.252 206.83 183.525 210.198C183.769 213.087 183.949 216.384 184.013 220.06C184.145 228.533 183.664 237.004 182.576 245.381C182.293 247.59 181.959 249.919 181.562 252.249C180.933 256.091 180.15 260.114 179.213 264.274C178.776 266.21 178.301 268.192 177.788 270.188C177.583 271.005 177.377 271.807 177.185 272.624C176.992 273.441 176.71 274.59 176.491 275.649C175.017 282.369 173.839 289.175 172.962 296.039C171.871 304.586 171.203 313.071 170.831 321.104C170.33 331.813 170.343 341.706 170.574 349.843V350.252C170.818 358.526 171.242 365.015 171.55 368.721C171.704 370.869 171.832 372.094 171.832 372.17" stroke="#263238" stroke-linecap="round" stroke-linejoin="round"/>
<path d="M182.113 199.352C181.193 198.402 180.185 197.575 179.11 196.887C177.924 196.15 176.665 195.591 175.362 195.223" fill="white"/>
<path d="M182.113 199.352C181.193 198.402 180.185 197.575 179.11 196.887C177.924 196.15 176.665 195.591 175.362 195.223" stroke="#263238" stroke-linecap="round" stroke-linejoin="round"/>
<path d="M183.551 210.243L186.978 206.598" stroke="#263238" stroke-linecap="round" stroke-linejoin="round"/>
<path d="M179.212 264.35C179.029 263.287 178.758 262.249 178.404 261.249C177.898 259.781 177.21 258.41 176.363 257.18C175.73 256.255 175.011 255.418 174.219 254.684" stroke="#263238" stroke-linecap="round" stroke-linejoin="round"/>
<path d="M176.479 275.634C176.958 274.22 177.679 272.939 178.598 271.869C179.517 270.799 180.613 269.964 181.818 269.417" stroke="#263238" stroke-linecap="round" stroke-linejoin="round"/>
<path d="M170.535 331.964C171.678 330.331 172.55 324.144 173.012 320.816C173.115 320.03 173.218 319.303 173.295 318.865" fill="white"/>
<path d="M170.535 331.964C171.678 330.331 172.55 324.144 173.012 320.816C173.115 320.03 173.218 319.303 173.295 318.865" stroke="#263238" stroke-linecap="round" stroke-linejoin="round"/>
<path d="M161.743 343.127C162.127 343.082 162.514 343.082 162.898 343.127C164.578 343.325 166.182 344.055 167.538 345.24C168.894 346.425 169.952 348.021 170.6 349.859" fill="white"/>
<path d="M161.743 343.127C162.127 343.082 162.514 343.082 162.898 343.127C164.578 343.325 166.182 344.055 167.538 345.24C168.894 346.425 169.952 348.021 170.6 349.859" stroke="#263238" stroke-linecap="round" stroke-linejoin="round"/>
<path d="M181.549 252.37C181.549 252.37 182.165 227.82 170.715 218.91" stroke="#263238" stroke-linecap="round" stroke-linejoin="round"/>
<path d="M182.588 305.055C184.077 310.787 173.603 321.693 173.603 321.693C173.603 321.693 159.741 319.651 158.2 313.934C156.66 308.216 160.216 298.807 166.929 296.387C173.642 293.967 181.087 299.337 182.588 305.055Z" fill="#112E45"/>
<path d="M194.217 235.58C192.934 241.63 182.973 245.971 182.973 245.971C182.973 245.971 176.055 236.548 177.39 230.467C178.725 224.386 184.193 217.7 188.839 219.107C193.486 220.514 195.501 229.499 194.217 235.58Z" fill="#112E45"/>
<path d="M154.426 326.443C160.652 329.302 164.477 342.265 164.477 342.265C164.477 342.265 154.208 348.785 147.983 345.926C141.758 343.067 135.147 335.02 136.957 329.65C138.767 324.28 148.188 323.584 154.426 326.443Z" fill="#112E45"/>
<path d="M168.071 255.047C169.326 256.295 170.767 257.259 172.319 257.891C173.101 258.189 173.937 258.228 174.736 258.004C175.535 257.78 176.267 257.301 176.85 256.62C178.134 254.82 177.826 252.082 176.992 249.828C175.323 245.518 169.2 238.181 164.477 240.284C157.687 243.324 165.029 252.4 168.071 255.047Z" fill="#112E45"/>
<path d="M181.985 266.059C181.099 267.36 180.149 269.084 180.637 270.597C180.916 271.264 181.375 271.804 181.941 272.132C182.508 272.46 183.15 272.559 183.769 272.412C185.001 272.071 186.151 271.403 187.132 270.461C189.532 268.509 194.461 264.41 191.316 260.523C188.172 256.635 183.872 263.306 181.985 266.059Z" fill="#112E45"/>
<path d="M161.897 211.181C161.379 211.219 160.884 211.446 160.482 211.831C160.079 212.216 159.788 212.74 159.65 213.329C159.445 214.736 160.433 215.961 161.396 216.823C163.783 219.001 170.946 224.84 172.55 219.198C174.052 213.873 165.067 210.772 161.897 211.181Z" fill="#112E45"/>
<path d="M175.105 192.636C173.629 192.802 172.153 192.167 170.677 192.273C169.2 192.379 167.545 193.786 167.878 195.51C168.212 197.234 169.842 197.613 171.216 197.703C173.554 197.88 175.902 197.692 178.198 197.144C178.747 197.083 179.256 196.781 179.623 196.297C180.213 195.253 179.264 193.861 178.25 193.498C177.191 193.333 176.15 193.039 175.143 192.621L175.105 192.636Z" fill="#112E45"/>
<path d="M189.558 204.631C191.047 204.631 192.484 203.935 193.961 203.92C195.437 203.905 197.17 205.191 196.938 206.945C196.707 208.7 195.09 209.199 193.73 209.396C191.404 209.759 189.047 209.759 186.721 209.396C186.171 209.381 185.646 209.115 185.258 208.655C184.603 207.672 185.476 206.204 186.477 205.751C187.523 205.516 188.543 205.146 189.519 204.646L189.558 204.631Z" fill="#112E45"/>
<path d="M188.095 333.537C188.436 333.121 188.89 332.859 189.378 332.796C189.705 332.841 190.01 333.015 190.243 333.29C190.476 333.564 190.624 333.923 190.662 334.309C190.728 335.057 190.645 335.814 190.418 336.517C189.417 340.495 178.108 369.22 175.516 364.062C173.975 361.037 177.749 350.917 178.866 348.059C181 342.479 184.151 337.521 188.095 333.537Z" fill="#112E45"/>
<path d="M182.588 201.031C182.588 201.031 181.908 194.058 183.345 193.468" stroke="#263238" stroke-linecap="round" stroke-linejoin="round"/>
<path d="M181.381 193.725C182.1 191.257 183.357 189.055 185.027 187.342C186.811 185.829 189.66 185.708 190.957 187.811C192.407 190.155 190.957 193.71 188.736 194.965C186.516 196.221 183.91 195.843 181.471 195.434C181.471 195.011 181.471 194.587 181.471 194.164L181.381 193.725Z" fill="#112E45"/>
<path d="M19.459 366.346V216.883" stroke="#263238" stroke-linecap="round" stroke-linejoin="round"/>
<path d="M415.441 366.346H399.769" stroke="#263238" stroke-linecap="round" stroke-linejoin="round"/>
<path d="M538.343 366.346H506.421" stroke="#263238" stroke-linecap="round" stroke-linejoin="round"/>
<path d="M398.331 139.286H454.898V75.7855" stroke="#263238" stroke-linecap="round" stroke-linejoin="round"/>
<path d="M68.6328 119.894H128.73V171.55H194.603" stroke="#263238" stroke-linecap="round" stroke-linejoin="round"/>
<path d="M33.1807 294.829V180.686" stroke="#263238" stroke-linecap="round" stroke-linejoin="round"/>
<path d="M60.0327 131.148V220.605" stroke="#263238" stroke-linecap="round" stroke-linejoin="round"/>
<path d="M86.8726 131.148V210.228" stroke="#263238" stroke-linecap="round" stroke-linejoin="round"/>
<path d="M113.712 131.148V269.478" stroke="#263238" stroke-linecap="round" stroke-linejoin="round"/>
<path d="M242.287 111.529V20.5746H351.558V111.529" stroke="#263238" stroke-linecap="round" stroke-linejoin="round"/>
<path d="M250.296 65.7568V31.3748H270.5" stroke="#263238" stroke-linecap="round" stroke-linejoin="round"/>
<path d="M274.941 65.7568V31.3748H295.144" stroke="#263238" stroke-linecap="round" stroke-linejoin="round"/>
<path d="M299.585 65.7568V31.3748H319.789" stroke="#263238" stroke-linecap="round" stroke-linejoin="round"/>
<path d="M324.23 65.7568V31.3748H344.434" stroke="#263238" stroke-linecap="round" stroke-linejoin="round"/>
<path d="M250.296 111.529V77.1469H270.5" stroke="#263238" stroke-linecap="round" stroke-linejoin="round"/>
<path d="M274.941 111.529V77.1469H295.144" stroke="#263238" stroke-linecap="round" stroke-linejoin="round"/>
<path d="M299.585 111.529V77.1469H319.789" stroke="#263238" stroke-linecap="round" stroke-linejoin="round"/>
<path d="M324.23 111.529V77.1469H344.434" stroke="#263238" stroke-linecap="round" stroke-linejoin="round"/>
<path d="M463.652 83.6512V197.628" stroke="#263238" stroke-linecap="round" stroke-linejoin="round"/>
<path d="M503.327 357.997H506.421" stroke="#263238" stroke-linecap="round" stroke-linejoin="round"/>
<path d="M487.437 116.384V243.99" stroke="#263238" stroke-linecap="round" stroke-linejoin="round"/>
<path d="M511.234 325.415V357.997H530.218" stroke="#263238" stroke-linecap="round" stroke-linejoin="round"/>
<path d="M511.234 157.982V244.64" stroke="#263238" stroke-linecap="round" stroke-linejoin="round"/>
<path d="M535.019 223.736V357.997H539.344" stroke="#263238" stroke-linecap="round" stroke-linejoin="round"/>
<path d="M245.162 369.084H0V556.741H245.162V369.084Z" fill="white" stroke="#263238" stroke-linecap="round" stroke-linejoin="round"/>
<path d="M0 369.084L122.581 462.912L245.162 369.084H0Z" fill="white" stroke="#263238" stroke-linecap="round" stroke-linejoin="round"/>
<path d="M85.7298 434.702L0 556.741" stroke="#263238" stroke-linecap="round" stroke-linejoin="round"/>
<path d="M160.1 434.702L245.829 556.741" stroke="#263238" stroke-linecap="round" stroke-linejoin="round"/>
<path d="M376.356 129.635H319.365C317.724 129.637 316.113 130.158 314.7 131.142C313.287 132.126 312.123 133.538 311.33 135.232C309.93 138.21 307.878 140.693 305.389 142.421C302.899 144.15 300.062 145.062 297.173 145.062C294.283 145.062 291.446 144.15 288.956 142.421C286.467 140.693 284.415 138.21 283.015 135.232C282.228 133.516 281.062 132.084 279.641 131.085C278.22 130.087 276.596 129.559 274.941 129.559H218.015C216.452 129.535 214.901 129.874 213.449 130.557C211.998 131.24 210.675 132.252 209.556 133.538C208.436 134.823 207.543 136.355 206.926 138.048C206.31 139.74 205.982 141.559 205.962 143.4V522.192C206.006 525.91 207.3 529.455 209.559 532.05C211.819 534.645 214.86 536.077 218.015 536.033H376.356C379.512 536.077 382.554 534.645 384.816 532.051C387.078 529.457 388.374 525.911 388.422 522.192V143.476C388.378 139.755 387.082 136.208 384.82 133.612C382.557 131.017 379.513 129.587 376.356 129.635Z" fill="#112E45"/>
<path d="M393.979 139.286C393.986 136.734 393.565 134.206 392.741 131.846C391.917 129.486 390.706 127.342 389.178 125.534C387.649 123.727 385.833 122.293 383.833 121.315C381.833 120.337 379.689 119.833 377.524 119.833H216.859C214.699 119.831 212.559 120.331 210.563 121.304C208.567 122.277 206.752 123.704 205.224 125.503C203.696 127.303 202.484 129.439 201.657 131.791C200.83 134.143 200.404 136.664 200.404 139.21V537.319C200.404 542.458 202.136 547.386 205.22 551.02C208.303 554.654 212.486 556.695 216.846 556.695H377.524C381.886 556.695 386.069 554.654 389.155 551.021C392.241 547.387 393.976 542.459 393.979 537.319V139.286ZM388.421 522.192C388.374 525.911 387.077 529.457 384.816 532.051C382.554 534.645 379.512 536.077 376.356 536.033H218.014C214.86 536.077 211.819 534.645 209.559 532.05C207.299 529.455 206.006 525.91 205.962 522.192V143.476C205.982 141.634 206.309 139.815 206.926 138.123C207.543 136.431 208.436 134.899 209.555 133.613C210.675 132.328 211.998 131.315 213.449 130.633C214.901 129.95 216.452 129.611 218.014 129.635H274.966C276.62 129.635 278.242 130.162 279.661 131.16C281.08 132.159 282.244 133.592 283.027 135.307C284.428 138.286 286.479 140.768 288.969 142.497C291.459 144.226 294.296 145.137 297.185 145.137C300.075 145.137 302.912 144.226 305.401 142.497C307.891 140.768 309.942 138.286 311.343 135.307C312.134 133.612 313.297 132.198 314.711 131.213C316.124 130.229 317.736 129.71 319.378 129.711H376.369C377.931 129.687 379.483 130.026 380.934 130.708C382.385 131.391 383.708 132.404 384.828 133.689C385.947 134.974 386.84 136.507 387.457 138.199C388.074 139.891 388.401 141.71 388.421 143.551V522.192Z" fill="#263238"/>
<path opacity="0.2" d="M339.389 119.894L232.66 556.725L275.044 556.68L377.819 119.894H339.389Z" fill="white"/>
<path opacity="0.2" d="M323.473 119.894L210.634 556.741L216.808 556.695L327.529 119.894H323.473Z" fill="white"/>
<path d="M325.976 444.64C326.055 448.97 325.397 453.275 324.043 457.301C322.688 461.327 320.664 464.992 318.088 468.082C315.513 471.172 312.439 473.623 309.048 475.292C305.656 476.96 302.016 477.812 298.341 477.797C290.842 477.763 283.651 474.277 278.304 468.082C272.956 461.887 269.874 453.475 269.717 444.64C269.64 440.311 270.298 436.008 271.654 431.984C273.009 427.959 275.034 424.295 277.609 421.207C280.184 418.119 283.258 415.669 286.648 414.002C290.039 412.334 293.678 411.483 297.352 411.498C304.85 411.528 312.04 415.011 317.389 421.203C322.737 427.395 325.819 435.806 325.976 444.64Z" fill="white" stroke="#263238" stroke-linecap="round" stroke-linejoin="round"/>
<path d="M288.624 469.386C286.011 468.248 283.616 466.51 281.577 464.274C279.521 461.946 277.93 459.11 276.918 455.969C275.764 452.449 275.193 448.701 275.236 444.927C275.22 441.71 275.703 438.516 276.661 435.504C277.532 432.721 278.838 430.155 280.512 427.94C283.811 423.687 288.073 420.633 292.795 419.137C295.114 418.4 297.505 418.029 299.906 418.033C301.9 418.022 303.888 418.302 305.824 418.865C307.692 419.405 309.479 420.277 311.125 421.451C312.754 422.605 314.215 424.06 315.45 425.762C316.738 427.597 317.722 429.701 318.351 431.964C319.071 434.546 319.427 437.249 319.404 439.966C319.377 445.217 317.771 450.287 314.873 454.275C313.626 455.94 312.151 457.347 310.509 458.435C309.093 459.392 307.494 459.913 305.862 459.948C304.735 459.965 303.635 459.545 302.73 458.753C302.276 458.357 301.907 457.842 301.65 457.248C301.394 456.655 301.259 456 301.254 455.334C300.412 456.843 299.256 458.073 297.897 458.907C296.538 459.741 295.02 460.151 293.489 460.099C292.284 460.162 291.082 459.907 289.971 459.352C288.861 458.797 287.87 457.957 287.071 456.892C285.468 454.697 284.621 451.875 284.696 448.981C284.707 446.599 285.058 444.237 285.736 441.993C286.41 439.731 287.366 437.6 288.572 435.67C289.774 433.773 291.306 432.2 293.065 431.056C294.823 429.887 296.809 429.277 298.828 429.287C300.232 429.27 301.617 429.665 302.859 430.436C304.064 431.194 305.042 432.372 305.657 433.809L305.913 432.796C306.118 432.086 306.553 431.501 307.124 431.169C307.694 430.837 308.353 430.786 308.956 431.026C309.189 431.12 309.409 431.252 309.61 431.419C309.802 431.599 309.954 431.83 310.054 432.093C310.155 432.356 310.2 432.644 310.188 432.932C310.188 433.215 310.149 433.496 310.072 433.764L305.913 450.07C305.547 451.312 305.31 452.603 305.208 453.912C305.169 454.157 305.183 454.408 305.247 454.645C305.31 454.882 305.423 455.097 305.574 455.27C305.725 455.444 305.91 455.57 306.112 455.64C306.315 455.709 306.529 455.718 306.735 455.667C308.207 455.556 309.586 454.781 310.586 453.504C311.972 451.888 313.038 449.93 313.705 447.771C314.501 445.413 314.911 442.897 314.911 440.359C314.928 438.124 314.651 435.899 314.09 433.764C313.618 431.923 312.87 430.197 311.882 428.666C310.946 427.273 309.813 426.08 308.532 425.142C307.255 424.193 305.861 423.484 304.399 423.04C302.899 422.575 301.354 422.341 299.804 422.344C297.837 422.347 295.88 422.673 293.989 423.312C292.042 423.962 290.187 424.945 288.483 426.231C286.764 427.509 285.209 429.067 283.862 430.86C282.474 432.748 281.395 434.923 280.678 437.273C279.872 439.833 279.468 442.545 279.485 445.275C279.443 448.509 279.94 451.721 280.948 454.729C281.817 457.333 283.188 459.663 284.953 461.536C286.657 463.28 288.626 464.629 290.755 465.514C293.001 466.45 295.367 466.921 297.75 466.906C300.296 466.906 302.828 466.452 305.259 465.559C305.502 465.457 305.758 465.405 306.016 465.408C306.257 465.404 306.496 465.459 306.717 465.572C306.938 465.684 307.137 465.85 307.3 466.059C307.464 466.26 307.592 466.497 307.678 466.756C307.764 467.016 307.805 467.293 307.8 467.571C307.831 468.011 307.726 468.449 307.504 468.805C307.283 469.161 306.959 469.41 306.594 469.507C303.564 470.599 300.417 471.17 297.249 471.202C294.306 471.197 291.386 470.583 288.624 469.386ZM299.226 453.7C300.495 452.627 301.436 451.099 301.909 449.344L304.591 438.226L304.412 437.772C304.245 437.408 304.042 437.068 303.808 436.759C303.487 436.322 303.135 435.917 302.756 435.549C302.275 435.097 301.732 434.744 301.151 434.505C299.632 433.88 297.969 433.95 296.492 434.702C295.683 435.106 294.94 435.674 294.297 436.381C293.629 437.115 293.035 437.937 292.526 438.831C292.016 439.762 291.586 440.75 291.242 441.781C290.882 442.812 290.602 443.881 290.408 444.973C290.214 446.011 290.115 447.071 290.113 448.134C290.101 448.817 290.136 449.5 290.215 450.176C290.275 450.778 290.387 451.371 290.549 451.946C290.69 452.48 290.893 452.99 291.152 453.458C291.385 453.881 291.681 454.25 292.025 454.548C292.393 454.861 292.806 455.092 293.245 455.228C293.757 455.405 294.29 455.487 294.823 455.47C296.429 455.494 297.996 454.887 299.277 453.746L299.226 453.7Z" fill="#112E45" stroke="#263238" stroke-linecap="round" stroke-linejoin="round"/>
<path d="M325.347 330.996C325.424 335.325 324.766 339.628 323.41 343.652C322.055 347.676 320.03 351.341 317.455 354.429C314.88 357.517 311.806 359.967 308.416 361.634C305.025 363.302 301.386 364.153 297.712 364.138C290.214 364.108 283.024 360.625 277.676 354.433C272.327 348.241 269.246 339.83 269.088 330.996C269.008 326.666 269.664 322.36 271.018 318.333C272.372 314.306 274.396 310.639 276.972 307.549C279.547 304.459 282.622 302.008 286.014 300.34C289.407 298.672 293.048 297.822 296.723 297.839C304.222 297.873 311.413 301.359 316.761 307.554C322.108 313.749 325.19 322.161 325.347 330.996Z" fill="white" stroke="#263238" stroke-linecap="round" stroke-linejoin="round"/>
<path d="M314.873 327.971C306.055 321.164 288.765 321.164 280.358 327.971C278.82 328.311 277.438 329.29 276.462 330.732C275.487 332.173 274.983 333.979 275.044 335.821C275.172 340.223 290.691 340.223 290.562 335.821C290.487 333.981 289.89 332.224 288.868 330.83C294.688 329.347 300.71 329.347 306.53 330.83C305.583 332.249 305.092 334.017 305.144 335.821C305.272 340.223 320.79 340.223 320.649 335.821C320.576 333.938 319.966 332.138 318.918 330.714C317.87 329.289 316.445 328.323 314.873 327.971Z" fill="#112E45" stroke="#263238" stroke-linecap="round" stroke-linejoin="round"/>
<path d="M325.347 220.605C325.501 228.758 321.727 236.048 315.669 240.904V260.704L303.616 246.486C301.667 246.896 299.691 247.099 297.711 247.091C282.18 247.091 269.357 235.232 269.088 220.605C268.818 205.977 281.179 194.134 296.723 194.134C312.267 194.134 325.141 206.053 325.347 220.605Z" fill="white" stroke="#263238" stroke-linecap="round" stroke-linejoin="round"/>
<path d="M285.235 220.605C285.238 221.455 285.026 222.287 284.627 222.995C284.228 223.704 283.66 224.257 282.994 224.584C282.328 224.912 281.595 224.999 280.887 224.835C280.179 224.671 279.528 224.263 279.017 223.663C278.506 223.062 278.158 222.297 278.016 221.463C277.874 220.63 277.946 219.765 278.221 218.979C278.497 218.193 278.964 217.522 279.564 217.049C280.163 216.576 280.869 216.324 281.59 216.324C282.555 216.324 283.48 216.774 284.163 217.577C284.847 218.379 285.232 219.468 285.235 220.605Z" fill="#112E45" stroke="#263238" stroke-linecap="round" stroke-linejoin="round"/>
<path d="M300.831 220.605C300.833 221.455 300.622 222.287 300.223 222.995C299.824 223.704 299.255 224.257 298.589 224.584C297.923 224.912 297.19 224.999 296.482 224.835C295.774 224.671 295.123 224.263 294.612 223.663C294.101 223.062 293.753 222.297 293.611 221.463C293.469 220.63 293.541 219.765 293.816 218.979C294.092 218.193 294.559 217.522 295.159 217.049C295.759 216.576 296.464 216.324 297.185 216.324C298.15 216.324 299.075 216.774 299.758 217.577C300.442 218.379 300.827 219.468 300.831 220.605Z" fill="#112E45" stroke="#263238" stroke-linecap="round" stroke-linejoin="round"/>
<path d="M316.426 220.605C316.428 221.455 316.217 222.287 315.818 222.995C315.419 223.704 314.85 224.257 314.185 224.584C313.519 224.912 312.785 224.999 312.077 224.835C311.369 224.671 310.719 224.263 310.208 223.663C309.696 223.062 309.348 222.297 309.206 221.463C309.065 220.63 309.136 219.765 309.412 218.979C309.687 218.193 310.154 217.522 310.754 217.049C311.354 216.576 312.059 216.324 312.781 216.324C313.745 216.324 314.67 216.774 315.354 217.577C316.037 218.379 316.423 219.468 316.426 220.605Z" fill="#112E45" stroke="#263238" stroke-linecap="round" stroke-linejoin="round"/>
<path d="M140.051 280.973C139.595 281.972 138.938 282.824 138.138 283.454C132.217 289.021 126.158 294.36 119.963 299.473C117.691 301.349 115.329 303.285 113.134 305.387C99.939 315.794 108 318.335 99.939 340.359C98.0393 345.623 98.3859 371.414 98.3859 371.414H97.7313C96.1862 369.616 94.544 367.939 92.8152 366.392C92.5764 366.202 92.3277 366.03 92.0707 365.877C91.8296 365.731 91.5692 365.634 91.3006 365.59C90.017 365.499 85.1266 366.195 80.1849 365.817L78.9013 365.696C78.1825 365.605 77.4765 365.499 76.7705 365.348C76.0646 365.197 75.3843 365.03 74.7297 364.818C70.04 363.046 65.4413 360.955 60.9569 358.556L58.7235 357.422L57.6197 356.862L56.6185 356.348L55.8997 355.985L55.2065 355.637C54.0385 355.062 52.9475 354.533 51.9463 354.124C51.4873 353.93 51.0204 353.764 50.5472 353.625C50.5472 354.865 50.3803 356.136 50.2391 357.376C49.623 363.291 48.2496 368.751 45.798 369.477C45.7475 369.493 45.6944 369.493 45.6439 369.477C45.428 369.525 45.209 369.55 44.9893 369.553H44.7968C44.2537 369.54 43.716 369.423 43.2051 369.205C40.9802 368.086 39.1619 366.077 38.0709 363.533C37.5833 362.46 37.3111 361.27 37.2751 360.054C37.2751 355.652 36.2354 329.68 36.2354 322.117C36.2354 314.554 37.5189 301.318 40.715 296.402C41.9641 294.318 43.5415 292.536 45.3615 291.153C47.7034 288.853 50.3894 287.088 53.2812 285.95C56.6955 284.634 64.3327 281.276 69.6596 278.901L61.6116 282.562C63.6524 286.676 68.0294 293.15 75.9234 293.982C83.3424 294.723 87.9376 286.812 90.2866 281.034C90.4919 281.125 103.405 278.236 106.395 278.402C116.138 278.901 124.083 272.684 127.677 270.219C128.761 269.455 129.978 268.991 131.235 268.859C132.493 268.728 133.76 268.933 134.941 269.459C136.123 269.986 137.188 270.82 138.057 271.9C138.926 272.98 139.577 274.277 139.961 275.694V275.831C140.522 277.475 140.554 279.304 140.051 280.973Z" fill="#112E45" stroke="#263238" stroke-linecap="round" stroke-linejoin="round"/>
<path d="M90.1451 281.125L89.5547 280.883" stroke="#263238" stroke-linecap="round" stroke-linejoin="round"/>
<path d="M101.094 378.069C101.101 378.129 101.101 378.19 101.094 378.251C101.042 378.397 100.963 378.527 100.862 378.632C100.762 378.738 100.642 378.815 100.513 378.858C100.384 378.902 100.248 378.911 100.115 378.884C99.9824 378.857 99.8565 378.796 99.7467 378.704C99.1563 378.311 98.245 375.785 98.245 375.785L97.2309 374.545L96.5635 373.713C96.6662 374.015 97.4748 376.33 97.0512 377.404C97.0297 377.477 96.9946 377.544 96.9485 377.6C96.6649 378.047 96.2968 378.409 95.8734 378.659C95.45 378.908 94.9831 379.038 94.5098 379.037C93.9578 379.037 92.3405 379.264 90.9286 379.37H90.7746C90.347 379.398 89.9185 379.398 89.491 379.37C88.3513 379.197 87.252 378.76 86.2564 378.084C83.9984 377.693 81.7736 377.071 79.6075 376.224L79.2224 375.982L78.8759 375.74C78.648 375.577 78.4369 375.385 78.2469 375.165C77.4647 374.397 76.8004 373.476 76.283 372.442C76.283 372.442 71.0717 372.185 64.0763 371.55C61.5091 371.323 58.7366 371.035 55.8614 370.703C51.4459 370.173 47.8006 370.203 44.9382 369.734H44.7328C44.1681 369.644 43.6418 369.523 43.1412 369.387C41.9196 369.105 40.79 368.424 39.8819 367.421C38.9738 366.417 38.324 365.133 38.0069 363.714C37.8389 363.043 37.7018 362.361 37.5962 361.672L39.8296 357.134C40.9937 356.034 42.2918 355.147 43.6803 354.502C45.8346 353.44 48.2133 353.181 50.4961 353.761C50.9693 353.9 51.4362 354.066 51.8952 354.26C52.8964 354.714 53.9874 355.244 55.1555 355.773L55.8614 356.121L56.5802 356.484L57.5814 356.998C63.2933 359.781 70.1091 363.366 74.6657 364.879C76.0343 365.301 77.4293 365.595 78.8373 365.756L80.1209 365.877C85.0627 366.255 89.9402 365.56 91.2366 365.65C92.5331 365.741 95.7035 369.296 97.7315 371.489C98.2835 372.094 98.7712 372.593 99.1049 372.896L99.259 373.047L99.3745 373.168C100.11 374.057 100.625 375.166 100.863 376.375C100.964 376.78 101.033 377.195 101.069 377.615C101.092 377.765 101.101 377.917 101.094 378.069Z" fill="white" stroke="#263238" stroke-linecap="round" stroke-linejoin="round"/>
<path d="M101.094 378.069C101.101 378.129 101.101 378.19 101.094 378.251C101.041 378.395 100.961 378.525 100.86 378.628C100.758 378.732 100.639 378.807 100.51 378.849C100.38 378.891 100.245 378.899 100.113 378.871C99.9807 378.843 99.8556 378.781 99.7467 378.689C99.112 377.821 98.6045 376.835 98.2449 375.77L97.2309 374.545L96.5634 373.728C96.6533 373.97 97.4876 376.33 97.064 377.419C97.0425 377.492 97.0074 377.559 96.9613 377.615C96.819 377.838 96.6554 378.041 96.4736 378.22C95.9201 378.744 95.2325 379.032 94.5226 379.037C93.9578 379.037 92.3533 379.249 90.9542 379.37H90.7745C90.347 379.398 89.9185 379.398 89.491 379.37C88.3582 379.192 87.2648 378.76 86.2692 378.099C84.0112 377.701 81.7866 377.073 79.6203 376.224L79.2481 376.012L78.9015 375.77C78.6795 375.598 78.4692 375.406 78.2725 375.195C77.4789 374.42 76.8056 373.489 76.283 372.442C76.283 372.442 71.2257 372.185 64.3714 371.565C61.8043 371.338 58.8393 371.035 55.8614 370.687C51.8053 370.219 48.4552 370.082 45.7468 369.583L44.9125 369.402L43.9498 369.145C43.7279 367.291 43.8909 365.402 44.4248 363.639C44.9223 362.151 45.6939 360.812 46.6839 359.719C47.6739 358.625 48.8576 357.805 50.1495 357.316C51.7528 356.621 53.3955 356.06 55.0656 355.637L55.7587 355.985L56.4775 356.348L57.4787 356.862C63.2933 359.812 70.032 363.381 74.6015 364.849C75.9691 365.273 77.3646 365.562 78.7731 365.711L80.0567 365.832C84.9984 366.225 89.876 365.529 91.1724 365.62C92.4688 365.711 95.6264 369.25 97.5903 371.444C98.0358 371.945 98.5028 372.42 98.9894 372.866L99.1434 373.002L99.2589 373.123C100.008 373.999 100.525 375.113 100.748 376.33C100.849 376.735 100.918 377.15 100.953 377.57C101.019 377.728 101.066 377.896 101.094 378.069Z" fill="white" stroke="#263238" stroke-linecap="round" stroke-linejoin="round"/>
<path d="M85.73 374.045C85.73 374.045 88.6437 375.83 89.7989 376.451C90.9541 377.071 90.8514 379.567 90.8514 379.567" fill="white"/>
<path d="M85.73 374.045C85.73 374.045 88.6437 375.83 89.7989 376.451C90.9541 377.071 90.8514 379.567 90.8514 379.567" stroke="#263238" stroke-linecap="round" stroke-linejoin="round"/>
<path d="M88.8486 371.625C90.6817 373.167 92.4467 374.818 94.1369 376.572C94.3839 376.913 94.5448 377.329 94.6015 377.773C94.6582 378.217 94.6084 378.67 94.4578 379.083" fill="white"/>
<path d="M88.8486 371.625C90.6817 373.167 92.4467 374.818 94.1369 376.572C94.3839 376.913 94.5448 377.329 94.6015 377.773C94.6582 378.217 94.6084 378.67 94.4578 379.083" stroke="#263238" stroke-linecap="round" stroke-linejoin="round"/>
<path d="M96.5248 373.698C95.0061 371.78 93.3992 369.962 91.7114 368.252L96.5248 373.698Z" fill="white"/>
<path d="M96.5248 373.698C95.0061 371.78 93.3992 369.962 91.7114 368.252" stroke="#263238" stroke-linecap="round" stroke-linejoin="round"/>
<path d="M90.1324 281.155C87.8091 286.918 83.2011 294.769 75.782 294.088C67.9266 293.301 63.5111 286.782 61.4702 282.652C64.2941 281.382 67.1564 280.081 69.5054 278.992C69.5054 276.178 69.4284 272.805 69.1716 269.462C69.1716 268.736 69.0433 267.95 68.9791 267.269C68.9149 266.588 68.8379 266.104 68.7609 265.545H83.6888C83.6888 265.545 83.599 266.24 83.4835 267.405C83.3936 268.449 83.2781 269.841 83.1882 271.414C83.0727 273.501 82.9957 275.952 83.0471 278.266C83.7659 278.553 84.4975 278.871 85.2291 279.204L86.6411 279.779C87.2058 280.021 87.7578 280.232 88.3482 280.459L89.6318 280.913C89.8028 280.981 89.97 281.062 90.1324 281.155Z" fill="white" stroke="#263238" stroke-linecap="round" stroke-linejoin="round"/>
<path d="M68.979 267.209C68.979 267.209 71.7644 275.74 75.8076 277.192C79.8509 278.644 83.509 267.405 83.509 267.405C83.509 267.405 77.81 274.575 75.6921 273.456C73.5742 272.336 69.0047 267.269 69.0047 267.269" fill="#263238"/>
<path d="M66.5791 220.09C62.8069 224.092 59.816 229.01 57.8123 234.506C55.9768 239.043 54.4237 244.262 55.8356 249.012C56.6805 251.37 57.8759 253.532 59.3654 255.395C62.138 259.313 66.0272 270.249 68.7997 274.167C68.9794 267.193 64.0248 255.924 64.5511 250.071C65.1885 245.548 66.4503 241.179 68.2863 237.138C70.1535 231.837 72.5955 226.844 75.5513 222.284C77.2328 219.894 82.6366 215.643 77.1814 215.129C73.5617 214.781 69.3131 217.443 66.5791 220.09Z" fill="#263238" stroke="#263238" stroke-linecap="round" stroke-linejoin="round"/>
<path d="M63.0876 243.869C63.0876 243.869 61.1751 239.497 59.1599 243.642C57.7095 246.667 59.8017 251.432 60.7002 253.202C60.9983 253.705 61.4022 254.11 61.8723 254.375C62.3425 254.64 62.8629 254.757 63.3828 254.714L63.0876 243.869Z" fill="white" stroke="#263238" stroke-linecap="round" stroke-linejoin="round"/>
<path d="M88.22 259.661C86.9935 262.517 85.3954 265.13 83.4836 267.405L82.3284 268.812C79.941 271.595 77.361 273.804 75.6667 273.35C74.1906 273.002 72.2652 271.217 70.3783 268.933C69.9034 268.373 69.4413 267.768 68.9793 267.163C66.9249 264.515 65.1611 261.572 63.7294 258.405C63.3317 257.217 63.0769 255.97 62.9721 254.699C62.6483 250.91 62.5368 247.1 62.6384 243.294C62.6384 241.948 62.6384 240.874 62.6384 240.269C62.6384 237.637 71.0073 228.485 71.0073 228.485C71.2329 228.388 71.4752 228.357 71.7133 228.395C73.1526 228.703 74.5399 229.286 75.8207 230.119C80.8908 233.023 87.9633 238.786 88.4767 240.98C89.2597 244.171 88.9645 256.817 88.22 259.661Z" fill="white" stroke="#263238" stroke-linecap="round" stroke-linejoin="round"/>
<path d="M71.5974 247.529C71.5974 248.588 71.2637 249.45 70.8914 249.45C70.5192 249.45 70.147 248.618 70.147 247.529C70.147 246.44 70.4807 245.578 70.8914 245.578C71.3022 245.578 71.5974 246.47 71.5974 247.529Z" fill="#263238"/>
<path d="M81.16 245.593C81.5707 245.593 81.9045 246.455 81.9045 247.529C81.9045 248.603 81.5707 249.45 81.16 249.45C80.7493 249.45 80.4155 248.588 80.4155 247.529C80.4155 246.47 80.7493 245.593 81.16 245.593Z" fill="#263238"/>
<path d="M66.8228 242.765C66.8228 242.765 68.1063 239.739 72.6502 240.662" stroke="#263238" stroke-linecap="round" stroke-linejoin="round"/>
<path d="M85.3836 242.765C85.3836 242.765 84.1 239.739 79.5562 240.662" stroke="#263238" stroke-linecap="round" stroke-linejoin="round"/>
<path d="M76.9761 254.926C77.4377 254.892 77.8778 254.684 78.2315 254.333C78.5851 253.981 78.8335 253.505 78.9399 252.975C78.9399 252.975 76.4498 248.437 77.2071 243.99" stroke="#263238" stroke-linecap="round" stroke-linejoin="round"/>
<path d="M61.4706 233.28C60.4364 234.934 59.6546 236.787 59.1602 238.756" stroke="white" stroke-linecap="round" stroke-linejoin="round"/>
<path d="M72.2014 221.179C72.2014 221.179 70.7766 223.963 64.4999 229.635C64.0954 229.979 63.7096 230.353 63.3447 230.754" stroke="white" stroke-linecap="round" stroke-linejoin="round"/>
<path d="M52.0745 309.865C51.2188 324.245 50.363 338.635 49.5073 353.035V351.931" fill="#263238"/>
<path d="M52.0745 309.865C51.2188 324.245 50.363 338.635 49.5073 353.035V351.931" stroke="#263238" stroke-linecap="round" stroke-linejoin="round"/>
<path d="M133.158 262.383C134.318 261.849 135.572 261.658 136.809 261.827C138.047 261.996 139.23 262.519 140.256 263.351C142.303 265.06 143.793 267.542 144.479 270.385C145.297 273.217 145.215 276.302 144.248 279.068C143.748 280.431 142.942 281.608 141.918 282.474C140.894 283.34 139.69 283.862 138.433 283.984C136.561 283.956 134.752 283.183 133.299 281.79C128.499 277.555 126.098 265.968 133.158 262.383Z" fill="white" stroke="#263238" stroke-linecap="round" stroke-linejoin="round"/>
<path d="M143.786 214.085C143.786 214.267 143.786 215.462 143.876 215.673C144.325 218.003 145.275 223.826 142.875 225.006C143.786 228.833 146.02 253.837 145.724 266.588C145.647 270.4 145.083 274.923 142.182 276.557C137.291 279.294 132.645 272.624 133.197 267.405C134.057 260.281 133.761 253.02 134.48 245.82C135.263 238.348 136.701 230.694 135.122 223.388C134.737 222.889 132.273 217.125 131.464 215.537C131.101 214.858 130.816 214.126 130.617 213.359C130.301 210.749 130.146 208.115 130.155 205.478C130.886 203.845 131.836 205.357 132.337 206.431C132.745 207.741 132.886 209.145 132.747 210.53C132.7 210.869 132.74 211.217 132.863 211.529C132.971 211.707 133.116 211.848 133.286 211.939C133.455 212.029 133.641 212.065 133.826 212.043C135.404 211.771 135.34 210.213 135.315 209.018C135.315 205.009 135.315 201.001 135.315 197.023C135.315 196.357 135.494 194.557 136.033 194.497C136.572 194.436 137.381 194.95 137.458 197.083C137.548 199.488 137.548 206.9 137.548 206.9C137.599 206.961 137.662 207.006 137.732 207.029C137.802 207.053 137.875 207.056 137.946 207.036C138.074 207.036 138.126 206.764 138.177 206.613C138.934 202.892 139.704 199.171 140.462 195.45C140.552 195.011 141.103 194.103 141.501 194.103C142.451 194.103 142.477 195.404 142.528 195.782C142.862 197.779 140.487 206.008 140.089 207.883C140.089 208.216 140.089 208.715 140.385 208.625L144.107 199.776C144.28 199.259 144.551 198.796 144.901 198.423C145.25 198.05 145.668 197.778 146.122 197.628C146.185 197.604 146.252 197.604 146.315 197.628C146.382 197.674 146.435 197.742 146.469 197.824C146.828 198.581 146.469 199.624 146.263 200.456C146.058 201.288 143.273 207.399 142.284 209.865C142.143 210.213 141.912 210.999 142.195 211.377C142.477 211.756 142.99 211.03 143.196 210.53C143.825 209.018 144.415 207.596 144.993 206.114C145.172 205.675 145.442 205.055 145.866 205.161C148.369 205.796 144.813 211.983 143.786 214.085Z" fill="white" stroke="#263238" stroke-linecap="round" stroke-linejoin="round"/>
<path d="M136.88 212.784C138.172 213.99 139.294 215.43 140.204 217.05C140.653 217.864 140.953 218.779 141.086 219.738C141.218 220.696 141.181 221.676 140.974 222.616C140.912 222.862 140.83 223.1 140.731 223.327" fill="white"/>
<path d="M136.88 212.784C138.172 213.99 139.294 215.43 140.204 217.05C140.653 217.864 140.953 218.779 141.086 219.738C141.218 220.696 141.181 221.676 140.974 222.616C140.912 222.862 140.83 223.1 140.731 223.327" stroke="#263238" stroke-linecap="round" stroke-linejoin="round"/>
<path d="M100.722 307.278C102.08 310.506 102.995 313.968 103.43 317.534C103.803 321.103 103.918 323.902 101.852 333.931" stroke="#263238" stroke-linecap="round" stroke-linejoin="round"/>
<path d="M71.7519 226.216C71.5762 226.835 71.5321 227.494 71.6236 228.137C71.8671 228.947 72.315 229.649 72.9072 230.149C77.0097 234.386 81.5987 237.92 86.5387 240.647C87.1583 240.837 87.6953 241.293 88.0444 241.925C88.3934 242.558 88.5294 243.321 88.4255 244.065V255.758C88.4887 256.964 88.389 258.174 88.1303 259.343C87.4115 262.066 85.8199 264.259 84.6647 266.77C83.4903 269.151 82.8952 271.867 82.9447 274.62C82.6238 271.731 91.1981 266.135 93.5213 254.76C93.8422 253.156 100.517 243.612 96.512 232.403C92.6613 221.648 86.6029 217.02 84.562 216.46C83.1767 215.983 81.7148 215.901 80.2974 216.222C78.8801 216.543 77.5479 217.257 76.4113 218.305C74.1683 220.274 72.5323 223.052 71.7519 226.216Z" fill="#263238" stroke="#263238" stroke-linecap="round" stroke-linejoin="round"/>
<path d="M80.1589 258.995C79.4273 259.177 78.6828 259.343 77.9383 259.449C75.3712 259.827 72.6243 259.358 70.9429 257.15C71.0712 259.131 72.2264 266.619 75.6793 266.83C79.1321 267.042 80.1589 258.995 80.1589 258.995Z" stroke="#263238" stroke-linecap="round" stroke-linejoin="round"/>
<path d="M76.8218 221.648C78.3023 225.609 80.6612 229.026 83.6504 231.541C85.8196 233.371 88.2969 234.687 90.2864 236.775C92.8536 239.543 94.5351 243.929 93.5467 247.907" stroke="white" stroke-linecap="round" stroke-linejoin="round"/>
<path d="M103.648 282.758C101.175 285.097 99.5469 288.454 99.0915 292.152C98.6489 295.347 98.9827 298.625 100.054 301.606" stroke="#263238" stroke-linecap="round" stroke-linejoin="round"/>
<path d="M55.8359 307.717C55.6305 311.68 53.5383 315.113 51.5103 318.305L55.8359 307.717Z" fill="#263238"/>
<path d="M55.8359 307.717C55.6305 311.68 53.5383 315.113 51.5103 318.305" stroke="#263238" stroke-linecap="round" stroke-linejoin="round"/>
<path d="M50.8296 338.015C51.8491 340.026 53.2137 341.765 54.836 343.119C56.4583 344.474 58.3026 345.414 60.251 345.88" stroke="#263238" stroke-linecap="round" stroke-linejoin="round"/>
<path d="M99.9391 340.374C99.9391 340.374 96.4862 346.425 84.7544 347.696" stroke="#263238" stroke-linecap="round" stroke-linejoin="round"/>
<path d="M443.616 287.357C443.616 287.357 398.883 303.693 390.463 290.79L391.605 224.976H398.395L406.379 271.338L443.038 263.427C443.038 263.427 447.736 280.58 443.616 287.357Z" fill="white"/>
<mask id="mask0_7_1427" style="mask-type:luminance" maskUnits="userSpaceOnUse" x="390" y="224" width="56" height="72">
<path d="M443.616 287.357C443.616 287.357 398.883 303.693 390.463 290.79L391.605 224.976H398.395L406.379 271.338L443.038 263.427C443.038 263.427 447.736 280.58 443.616 287.357Z" fill="white"/>
</mask>
<g mask="url(#mask0_7_1427)">
<path d="M424.773 289.656C422.208 290.858 419.76 292.379 417.469 294.194C420.498 295.328 423.733 293.891 426.762 292.757C430.763 291.309 434.841 290.177 438.969 289.369C439.162 288.022 437.686 284.952 437.108 283.757C436.055 281.669 435.824 281.488 434.053 282.516C430.831 284.422 428.084 287.735 424.773 289.656Z" fill="#112E45"/>
</g>
<path d="M443.616 287.357C443.616 287.357 398.883 303.693 390.463 290.79L391.605 224.976H398.395L406.379 271.338L443.038 263.427C443.038 263.427 447.736 280.58 443.616 287.357Z" stroke="#263238" stroke-linecap="round" stroke-linejoin="round"/>
<path d="M439.226 289.081L447.081 346.077C446.876 383.015 461.829 377.464 472.213 377.358C484.215 377.237 502.429 363.215 493.495 341.388L496.935 262.383L476.026 260.508C469.133 259.872 440.894 260.916 438.648 265.167C432.821 276.194 439.226 289.081 439.226 289.081Z" fill="white"/>
<mask id="mask1_7_1427" style="mask-type:luminance" maskUnits="userSpaceOnUse" x="436" y="260" width="61" height="118">
<path d="M439.226 289.081L447.081 346.077C446.876 383.015 461.829 377.464 472.213 377.358C484.215 377.237 502.429 363.215 493.495 341.388L496.935 262.383L476.026 260.508C469.133 259.872 440.894 260.916 438.648 265.167C432.821 276.194 439.226 289.081 439.226 289.081Z" fill="white"/>
</mask>
<g mask="url(#mask1_7_1427)">
<path d="M440.458 293.785C445.123 314.584 456.312 332.521 471.764 343.974C470.091 343.663 468.458 343.109 466.9 342.326C465.332 341.53 463.576 341.418 461.945 342.008C461.551 342.175 461.189 342.433 460.88 342.765C460.57 343.098 460.32 343.499 460.142 343.945C459.964 344.392 459.863 344.876 459.844 345.369C459.826 345.862 459.89 346.354 460.033 346.818C460.407 347.527 460.917 348.123 461.521 348.558C464.07 350.669 466.857 352.349 469.801 353.549C467.219 353.237 464.61 353.473 462.099 354.245C461.637 356.877 464.127 358.783 466.091 360.069C469.224 362.246 471.908 365.217 473.946 368.766C467.054 368.784 460.168 369.248 453.319 370.158C452.416 370.397 451.473 370.291 450.624 369.856C449.735 369.076 449.137 367.921 448.955 366.634C447.429 360.341 446.542 353.857 446.311 347.317C446.183 343.642 446.311 339.936 445.9 336.29C445.57 333.416 445.116 330.564 444.54 327.744C442.546 316.833 441.019 305.836 439.958 294.754C439.483 294.799 440.458 293.785 440.458 293.785Z" fill="#112E45"/>
<path d="M493.482 289.248C491.751 288.593 490.136 287.567 488.72 286.222C489.118 288.491 491.993 292.409 493.675 293.619C494.021 293.876 494.522 294.088 494.83 293.74C495.138 293.392 495.343 292.5 495.651 292.227L493.482 289.248Z" fill="#112E45"/>
</g>
<path d="M439.226 289.081L447.081 346.077C446.876 383.015 461.829 377.464 472.213 377.358C484.215 377.237 502.429 363.215 493.495 341.388L496.935 262.383L476.026 260.508C469.133 259.872 440.894 260.916 438.648 265.167C432.821 276.194 439.226 289.081 439.226 289.081Z" stroke="#263238" stroke-linecap="round" stroke-linejoin="round"/>
<path d="M454.513 259.343C452.263 264.198 451.18 269.684 451.381 275.21C451.378 275.693 451.457 276.171 451.612 276.617C452.19 277.963 453.769 277.963 455.039 278.13C459.981 278.871 463.049 285.012 467.708 287.069C467.871 287.188 468.053 287.267 468.243 287.301C468.433 287.334 468.626 287.323 468.812 287.266C468.998 287.21 469.172 287.11 469.324 286.972C469.477 286.834 469.603 286.661 469.698 286.464C471.726 283.439 472.444 279.189 475.217 277.237C476.424 276.39 477.951 276.042 478.785 274.711C479.735 273.199 479.312 271.02 478.849 269.175C478.092 266.15 477.245 263.003 475.281 260.901C473.189 258.976 470.619 257.914 467.965 257.876C464.081 257.501 460.171 257.931 456.413 259.146C456.464 259.721 454.513 259.343 454.513 259.343Z" fill="#112E45" stroke="#263238" stroke-linecap="round" stroke-linejoin="round"/>
<path d="M516.638 298.021C513.501 292.638 511.189 286.648 509.809 280.323C509.307 277.155 508.524 274.057 507.473 271.081C506.482 268.782 505.052 266.786 503.294 265.25C501.537 263.715 499.5 262.681 497.346 262.232C496.426 261.994 495.47 262.046 494.573 262.383C492.712 263.215 491.891 265.741 491.518 268.041C490.713 272.979 490.951 278.075 492.212 282.879C493.072 286.147 503.404 309.834 510.182 319.016C509.591 314.387 514.109 298.913 516.638 298.021Z" fill="white"/>
<mask id="mask2_7_1427" style="mask-type:luminance" maskUnits="userSpaceOnUse" x="491" y="262" width="26" height="58">
<path d="M516.638 298.021C513.501 292.638 511.189 286.648 509.809 280.323C509.307 277.155 508.524 274.057 507.473 271.081C506.482 268.782 505.052 266.786 503.294 265.25C501.537 263.715 499.5 262.681 497.346 262.232C496.426 261.994 495.47 262.046 494.573 262.383C492.712 263.215 491.891 265.741 491.518 268.041C490.713 272.979 490.951 278.075 492.212 282.879C493.072 286.147 503.404 309.834 510.182 319.016C509.591 314.387 514.109 298.913 516.638 298.021Z" fill="white"/>
</mask>
<g mask="url(#mask2_7_1427)">
<path d="M496.37 293.377L502.711 307.46C503.622 309.471 504.649 311.619 506.42 312.497C505.306 307.844 504.672 303.049 504.533 298.217C504.603 295.789 504.365 293.363 503.827 291.017C503.571 291.275 503.301 290.185 503.301 290.185C503.019 290.806 502.274 290.821 501.697 290.685C497.551 289.656 494.701 285.3 492.237 281.246C491.916 282.604 491.865 284.031 492.088 285.416C492.31 286.801 492.801 288.107 493.52 289.232C493.52 289.232 496.165 292.908 496.37 293.377Z" fill="#112E45"/>
</g>
<path d="M516.638 298.021C513.501 292.638 511.189 286.648 509.809 280.323C509.307 277.155 508.524 274.057 507.473 271.081C506.482 268.782 505.052 266.786 503.294 265.25C501.537 263.715 499.5 262.681 497.346 262.232C496.426 261.994 495.47 262.046 494.573 262.383C492.712 263.215 491.891 265.741 491.518 268.041C490.713 272.979 490.951 278.075 492.212 282.879C493.072 286.147 503.404 309.834 510.182 319.016C509.591 314.387 514.109 298.913 516.638 298.021Z" stroke="#263238" stroke-linecap="round" stroke-linejoin="round"/>
<path d="M507.73 314.962C500.824 299.367 504.161 263.427 503.956 257.649L513.069 257.074C513.981 257.074 518.204 287.72 521.079 300.441C523.646 312.028 521.182 323.751 516.638 323.751C512.864 323.751 509.18 318.245 507.73 314.962Z" fill="white" stroke="#263238" stroke-linecap="round" stroke-linejoin="round"/>
<path d="M425.44 274.469C431.858 263.427 444.45 262.55 444.45 262.55" stroke="#263238" stroke-linecap="round" stroke-linejoin="round"/>
<path d="M400.68 280.656C402.621 278.554 404.143 275.971 405.134 273.093L400.68 280.656Z" fill="white"/>
<path d="M400.68 280.656C402.621 278.554 404.143 275.971 405.134 273.093" stroke="#263238" stroke-linecap="round" stroke-linejoin="round"/>
<path d="M448.364 332.842C452.022 339.905 475.717 347.453 485.164 345.835" stroke="#263238" stroke-linecap="round" stroke-linejoin="round"/>
<path d="M455.065 352.778C461.89 354.162 468.886 353.847 475.602 351.855" stroke="#263238" stroke-linecap="round" stroke-linejoin="round"/>
<path d="M486.5 284.241L491.018 291.456C491.634 292.439 492.494 293.543 493.508 293.271" stroke="#263238" stroke-linecap="round" stroke-linejoin="round"/>
<path d="M520.078 557.936C519.68 559.857 519.552 562.141 520.72 563.578C521.888 565.015 523.582 564.984 525.161 564.954L530.591 564.833C532.684 564.956 534.777 564.57 536.739 563.699C537.72 563.249 538.56 562.455 539.146 561.425C539.731 560.394 540.034 559.176 540.012 557.936C539.878 556.976 539.618 556.048 539.242 555.183C538.754 553.942 538.266 552.687 537.791 551.446C531.797 535.882 522.645 545.351 520.078 557.936Z" fill="white" stroke="#263238" stroke-linecap="round" stroke-linejoin="round"/>
<path d="M512.428 539.587C512.617 546.732 512.109 553.878 510.913 560.885C510.631 562.473 510.913 564.879 512.196 564.727C512.7 564.636 513.157 564.329 513.48 563.865C518.198 558.381 521.572 551.499 523.248 543.944C523.5 543.159 523.617 542.323 523.593 541.484C523.569 540.646 523.404 539.821 523.107 539.058C522.755 538.446 522.322 537.904 521.823 537.455C517.472 533.355 512.03 529.286 512.428 539.587Z" fill="white" stroke="#263238" stroke-linecap="round" stroke-linejoin="round"/>
<path d="M497.525 356.756C497.525 356.756 504.29 370.612 505.74 373.834C507.191 377.056 537.829 424.507 543.708 459.055C544.812 465.62 522.208 539.043 522.208 539.043L517.074 535.624C517.074 535.624 520.642 468.66 519.77 463.094C518.897 457.527 496.344 416.444 496.344 416.444C496.344 416.444 483.753 405.538 478.567 392.863L497.525 356.756Z" fill="#263238"/>
<path d="M498.257 391.471C498.257 391.471 494.406 401.575 494.406 403.027C494.406 404.48 515.585 483.348 521.811 501.59C525.747 513.338 529.217 525.359 532.22 537.651C532.22 537.651 534.633 541.387 532.811 545.214C530.988 549.041 523.736 551.552 522.247 548.134C520.758 544.715 506.087 526.957 499.9 509.29C493.713 491.622 485.011 462.096 480.056 451.099C473.566 437.047 467.805 422.544 462.805 407.671C456.579 388.899 450.213 368.661 450.213 368.661C452.799 368.935 455.396 369.021 457.991 368.918C464.101 368.672 470.151 367.409 475.961 365.166C489.49 359.812 495.343 349.556 495.343 349.556C495.343 349.556 498.693 360.25 499.566 362.323L498.257 391.471Z" fill="#263238"/>
<path d="M541.449 465.817C540.124 468.494 538.34 470.817 536.212 472.639" stroke="white" stroke-linecap="round" stroke-linejoin="round"/>
<path d="M543.105 461.415C542.912 462.152 542.681 462.874 542.412 463.578" stroke="white" stroke-linecap="round" stroke-linejoin="round"/>
<path d="M486.025 367.904C489.439 374.832 492.635 384.8 492.122 392.787C491.847 394.237 491.415 395.64 490.838 396.962" stroke="white" stroke-linecap="round" stroke-linejoin="round"/>
<path d="M465.359 375.603C465.732 379.461 466.232 385.874 465.513 389.656C464.906 393.524 463.023 396.95 460.276 399.185" stroke="white" stroke-linecap="round" stroke-linejoin="round"/>
<path d="M494.471 361.007C495.216 362.102 495.822 363.32 496.268 364.622C497.137 366.492 498.332 368.125 499.774 369.413C501.216 370.7 502.873 371.614 504.637 372.094" stroke="white" stroke-linecap="round" stroke-linejoin="round"/>
<path d="M483.573 376.466C488.104 388.143 491.57 399.851 498.604 419.697" stroke="white" stroke-linecap="round" stroke-linejoin="round"/>
<path d="M481.16 370.491C481.545 371.398 481.917 372.306 482.29 373.214" stroke="white" stroke-linecap="round" stroke-linejoin="round"/>
<path d="M518.871 459.827C520.948 464.543 523.589 468.883 526.714 472.714" stroke="white" stroke-linecap="round" stroke-linejoin="round"/>
<path d="M521.015 464.183C522.375 471.584 524.857 478.635 528.344 484.997" stroke="white" stroke-linecap="round" stroke-linejoin="round"/>
<path d="M489.105 464.561C479.106 439.421 468.44 414.478 455.334 376.466" stroke="white" stroke-linecap="round" stroke-linejoin="round"/>
<path d="M491.364 471.867C491.121 470.99 490.864 470.113 490.594 469.22" stroke="white" stroke-linecap="round" stroke-linejoin="round"/>
<path d="M525.931 549.162C523.364 545.214 504.649 514.372 500.003 500.395C496.909 491.077 494.573 484.498 492.301 475.21" stroke="white" stroke-linecap="round" stroke-linejoin="round"/>
<path d="M518.871 489.807L527.766 520.619" stroke="white" stroke-linecap="round" stroke-linejoin="round"/>
<path d="M512.877 257.089L510.181 257.346C506.766 258.062 503.258 257.87 499.913 256.787C497.769 256.166 492.802 254.351 492.211 254.23C490.736 253.858 489.245 253.576 487.745 253.383C483.214 253.066 485.511 251.069 487.398 251.16C489.888 251.296 490.722 251.235 492.635 251.402C492.404 251.25 491.698 251.084 491.685 250.434C491.685 248.845 493.456 248.921 493.456 248.921C493.456 248.921 491.518 247.953 491.788 246.758C492.057 245.563 493.354 245.245 494.175 245.336C494.175 245.336 493.084 244.716 493.136 244.05C493.367 241.479 497.846 241.297 497.846 241.297C496.763 240.727 495.749 239.989 494.83 239.104C494.495 238.679 494.26 238.157 494.15 237.591C494.126 237.322 494.163 237.05 494.259 236.803C494.355 236.557 494.505 236.345 494.694 236.191C494.883 236.036 495.104 235.944 495.333 235.924C495.562 235.905 495.792 235.958 495.998 236.079C497.157 236.988 498.275 237.968 499.348 239.013C500.734 240.178 502.339 240.919 503.802 241.963C505.228 243.401 506.379 245.18 507.178 247.181C507.409 247.605 512.877 257.089 512.877 257.089Z" fill="white" stroke="#263238" stroke-linecap="round" stroke-linejoin="round"/>
<path d="M391.605 224.976V216.641C391.588 212.459 392.108 208.298 393.145 204.298C393.736 202.09 394.429 200.169 395.058 199.882C396.226 199.382 396.739 204.964 396.739 204.964C395.861 200.488 395.299 195.935 395.058 191.35C395.058 186.495 400.603 206.658 400.603 206.658L398.395 224.976H391.605Z" fill="white" stroke="#263238" stroke-linecap="round" stroke-linejoin="round"/>
<path d="M398.305 211.423C398.976 210.813 399.476 209.981 399.743 209.033L398.305 211.423Z" fill="white"/>
<path d="M398.305 211.423C398.976 210.813 399.476 209.981 399.743 209.033" stroke="#263238" stroke-linecap="round" stroke-linejoin="round"/>
<path d="M452.061 242.356C454.458 247.112 455.784 252.512 455.912 258.042C456.143 267.239 465.179 280.111 467.759 280.731C470.339 281.352 472.727 266.21 472.611 261.627C472.496 257.044 471.058 244.383 471.058 244.383C471.058 244.383 458.697 233.371 452.061 242.356Z" fill="white" stroke="#263238" stroke-linecap="round" stroke-linejoin="round"/>
<path d="M455.694 254.533C455.694 254.533 467.541 273.577 472.188 254.215C476.834 234.853 459.159 259.509 455.694 254.533Z" fill="#263238"/>
<path d="M475.692 240.843C475.063 252.143 470.686 258.496 465.641 259.615C461.033 260.614 454.295 255.077 450.932 246.864C450.675 246.667 446.58 243.324 445.605 242.507C445.095 242.087 444.68 241.528 444.394 240.877C444.108 240.227 443.959 239.504 443.962 238.771C443.995 238.068 444.205 237.392 444.567 236.832C444.928 236.271 445.424 235.851 445.99 235.625H446.105C446.683 235.477 447.285 235.529 447.838 235.776C446.991 231.919 446.298 228.001 445.772 224.053C446.016 214.978 448.57 207.566 456.785 206.84C465 206.114 471.867 211.529 472.188 215.431C472.419 218.457 473.253 226.458 473.998 234.732C474.203 236.88 475.833 238.302 475.692 240.843Z" fill="white" stroke="#263238" stroke-linecap="round" stroke-linejoin="round"/>
<path d="M472.188 227.774C472.188 227.774 466.9 224.915 467.798 234.203C467.978 236.033 470.866 238.741 470.866 238.741C470.866 238.741 470.121 241.479 468.748 241.479" fill="white"/>
<path d="M472.188 227.774C472.188 227.774 466.9 224.915 467.798 234.203C467.978 236.033 470.866 238.741 470.866 238.741C470.866 238.741 470.121 241.479 468.748 241.479" stroke="#263238" stroke-linecap="round" stroke-linejoin="round"/>
<path d="M461.971 230.951C461.971 230.951 459.275 229.015 457.427 230.21C456.463 230.704 455.642 231.519 455.065 232.554" fill="white"/>
<path d="M461.971 230.951C461.971 230.951 459.275 229.015 457.427 230.21C456.463 230.704 455.642 231.519 455.065 232.554" stroke="#263238" stroke-linecap="round" stroke-linejoin="round"/>
<path d="M460.43 236.306C460.636 237.425 460.43 238.423 459.878 238.559C459.326 238.696 458.787 237.879 458.595 236.759C458.402 235.64 458.595 234.642 459.16 234.506C459.724 234.369 460.238 235.171 460.43 236.306Z" fill="#263238"/>
<path d="M470.853 233.038C471.058 234.158 470.853 235.156 470.301 235.292C469.749 235.428 469.21 234.611 469.017 233.507C468.825 232.403 469.017 231.374 469.569 231.253C470.121 231.132 470.66 231.934 470.853 233.038Z" fill="#263238"/>
<path d="M445.156 212.33C444.217 213.414 443.566 214.797 443.282 216.309C442.513 219.507 442.291 222.853 442.628 226.153C442.965 229.454 443.855 232.642 445.246 235.534C446.101 235.41 446.968 235.451 447.813 235.655C448.711 235.927 449.867 237.743 450.29 238.68C450.661 239.68 450.875 240.752 450.919 241.842C450.714 238.968 450.521 236.109 450.316 233.235C450.178 232.086 450.222 230.917 450.444 229.786C451.073 227.426 450.38 221.86 450.56 216.883C455.886 224.552 463.626 223.191 466.194 222.934C470.044 222.556 473.33 217.912 473.125 214.599C472.919 211.287 472.162 202.756 459.468 201.878C456.671 201.527 453.851 202.221 451.407 203.86C450.632 204.461 449.974 205.25 449.476 206.173C448.978 207.095 448.652 208.132 448.519 209.214C448.339 210.606 448.788 210.727 447.89 211.408C446.991 212.088 446.041 211.438 445.156 212.33Z" fill="#263238" stroke="#263238" stroke-linecap="round" stroke-linejoin="round"/>
<path d="M461.971 246.803C461.971 246.803 463.858 249.254 467.798 247.635L461.971 246.803Z" fill="white"/>
<path d="M461.971 246.803C461.971 246.803 463.858 249.254 467.798 247.635" stroke="#263238" stroke-linecap="round" stroke-linejoin="round"/>
</svg>
